<svg width="25" height="24" viewBox="0 0 25 24" fill="none" xmlns="http://www.w3.org/2000/svg">
<path d="M2.5 9.65356L11.5033 2.45092C12.2548 1.84969 13.3227 1.84969 14.0742 2.45092L23.0775 9.65356" stroke="#0D6EFD" stroke-width="1.5" stroke-linecap="round" stroke-linejoin="round"/>
<path d="M10.1935 3.531L6.07804 6.87485C5.33082 7.48197 4.9572 7.78553 4.75746 8.20515C4.55774 8.62478 4.55774 9.10617 4.55774 10.069V13.7689C4.55774 17.649 4.55774 19.5892 5.76314 20.7945C6.96855 21.9999 8.90861 21.9999 12.7887 21.9999C16.6688 21.9999 18.609 21.9999 19.8143 20.7945C21.0198 19.5892 21.0198 17.649 21.0198 13.7689V10.069C21.0198 9.10617 21.0198 8.62478 20.8201 8.20515C20.6202 7.78553 20.2467 7.48197 19.4995 6.87485L15.384 3.531C14.1409 2.52099 13.5194 2.01599 12.7887 2.01599C12.0581 2.01599 11.4366 2.52099 10.1935 3.531Z" stroke="#0D6EFD" stroke-width="1.5"/>
<path d="M10.4736 16.084H15.1036" stroke="#0D6EFD" stroke-width="1.5" stroke-linecap="round"/>
</svg>
