<svg width="37" height="37" viewBox="0 0 37 37" fill="none" xmlns="http://www.w3.org/2000/svg">
<mask id="mask0_2101_5305" style="mask-type:alpha" maskUnits="userSpaceOnUse" x="0" y="0" width="37" height="37">
<circle cx="18.4999" cy="18.5" r="18.5" fill="#FFEADF"/>
</mask>
<g mask="url(#mask0_2101_5305)">
<path d="M7.63399 27.2706L6.46742 36.9999H-0.743286L-0.504255 35.3866C-0.417245 34.3253 -0.151488 33.3063 0.266536 32.3562C0.975177 30.7723 2.14585 29.4831 3.58289 28.5982V28.5957C3.65648 28.5488 3.73056 28.5087 3.80415 28.4639C4.95915 27.7982 6.2663 27.3824 7.63399 27.2706Z" fill="#186BE7"/>
<path d="M37.3182 36.9999H30.0871L28.8446 26.6204C29.6652 26.6876 30.4671 26.8641 31.2246 27.1409C33.4125 27.932 35.2515 29.5366 36.2124 31.7105C36.6305 32.6537 36.894 33.6749 36.9832 34.7365L37.3182 36.9999Z" fill="#186BE7"/>
<path d="M32.4754 27.7939L31.2426 37H4.68668L3.58289 28.5983V28.5958C3.65647 28.5488 3.73056 28.5088 3.80414 28.4639C5.47027 27.4814 9.25276 26.3511 11.9548 25.6179C13.8612 25.1009 15.8278 24.8446 17.8037 24.8536L19.9046 24.8635C21.3715 24.8701 22.833 25.0239 24.2697 25.3217C26.5945 25.803 30.0439 26.5756 31.224 27.1411C31.6759 27.3531 32.0936 27.5725 32.4754 27.7939Z" fill="#0D6EFD"/>
<path d="M24.429 15.8822C24.429 15.8822 25.0246 17.5151 22.3618 18.464L22.547 31.8101L14.6483 28.2696L15.3492 20.5549L18.3796 19.2526L19.1021 17.9473C19.1021 17.9473 20.1511 16.5939 20.2779 16.4607C20.4044 16.3273 21.5267 15.34 21.5267 15.34L23.9387 16.0677L24.429 15.8822Z" fill="#FAB9C9"/>
<path d="M21.0019 19.8336C21.4973 17.8703 20.2171 17.9432 18.7807 18.5297L18.3806 19.2525L15.5688 20.4608L15.2709 21.5074L14.993 24.8484C14.9929 24.8484 19.9895 23.8465 21.0019 19.8336Z" fill="#1B1E28"/>
<path d="M13.1615 14.794C13.1615 14.794 10.9702 13.8008 11.7399 11.5478C12.5094 9.29469 12.5286 9.29481 12.3689 8.23278C12.2089 7.17088 12.6173 4.52724 15.719 5.26795C18.821 6.00878 19.241 6.08883 20.8241 5.42768C22.4072 4.76652 24.5913 6.20916 24.2506 9.71532C23.9612 12.6954 23.3295 11.8712 23.9299 13.4672C24.5305 15.0631 24.1772 15.462 23.1248 15.7136C20.6863 16.2963 19.502 15.1344 19.502 15.0795C19.502 15.0247 19.0211 13.8026 18.7205 13.6424C18.42 13.482 15.6749 12.7208 15.615 12.8008C15.5548 12.8809 14.6488 14.1381 14.6488 14.1381L13.1615 14.794Z" fill="#1B1E28"/>
<path d="M11.9096 15.1247C12.8002 15.1731 13.7034 15.1295 14.5956 15.1213C14.6653 15.1207 14.6656 15.0121 14.5956 15.0127C13.7034 15.0198 12.7996 14.991 11.9096 15.0547C11.8647 15.0577 11.8643 15.1226 11.9096 15.1247Z" fill="#1B1E28"/>
<path d="M13.1667 11.7184V18.6001C13.1667 18.6001 12.9517 21.8677 15.4047 21.9988C17.8576 22.1298 19.3367 22.0082 20.1327 21.1373C20.9285 20.2666 21.6775 18.7124 21.1154 14.5834C20.5538 10.4543 19.9642 9.75236 19.9642 9.75236L16.9025 8.82532L14.0091 9.33085L13.1667 11.7184Z" fill="#FAB9C9"/>
<path d="M13.1629 18.8916C13.178 19.695 13.4021 21.892 15.4047 21.9987C17.8577 22.1298 19.3367 22.0082 20.1327 21.1373C20.7252 20.4891 21.291 19.4613 21.3103 17.2753C21.3066 16.5647 21.2476 15.7378 21.1156 14.7669C21.0387 14.1998 20.9702 13.6849 20.909 13.215C20.4184 10.2934 19.9643 9.75248 19.9643 9.75248L16.9027 8.82544L14.0093 9.33097L13.2057 11.6084L13.1668 11.9019V11.972C13.1668 11.972 13.3142 11.5929 13.9253 11.614C14.5363 11.635 14.4729 11.347 15.1892 10.5535C15.9056 9.76018 16.2567 10.7642 16.8226 11.2346C17.3886 11.7051 18.1877 11.0801 19.1145 11.052C20.0416 11.0238 19.8588 12.1335 19.6835 12.4355C19.5078 12.7374 19.3463 13.1658 19.9084 13.3695C20.47 13.573 20.6664 13.6642 20.737 15.0405C20.807 16.4169 20.4349 17.3931 19.7255 17.8563C19.0164 18.3199 17.5207 18.2145 16.4813 17.4211C15.442 16.6276 14.3147 17.3897 13.7709 17.6247C13.4836 17.7486 13.2049 17.588 13.1669 17.5646V18.6V18.7833C13.1668 18.7836 13.1643 18.8235 13.1629 18.8916Z" fill="#E5A0B1"/>
<path d="M15.2856 13.5009C15.1742 14.3844 15.0416 15.3821 15.1587 16.2665C15.2017 16.5914 15.3935 16.8428 15.8321 16.7513C15.9443 16.7278 15.8965 16.5937 15.7845 16.6119C15.0953 16.7247 15.3325 15.2959 15.339 15.0451C15.3531 14.5304 15.3779 14.0159 15.3724 13.5009C15.3717 13.455 15.2909 13.4568 15.2856 13.5009Z" fill="#EAAABA"/>
<path d="M16.7237 15.8207C16.9217 15.8207 17.0823 15.6602 17.0823 15.4621C17.0823 15.2641 16.9217 15.1035 16.7237 15.1035C16.5256 15.1035 16.3651 15.2641 16.3651 15.4621C16.3651 15.6602 16.5256 15.8207 16.7237 15.8207Z" fill="#1B1E28"/>
<path d="M14.001 15.8207C14.1991 15.8207 14.3596 15.6602 14.3596 15.4621C14.3596 15.2641 14.1991 15.1035 14.001 15.1035C13.803 15.1035 13.6424 15.2641 13.6424 15.4621C13.6424 15.6602 13.803 15.8207 14.001 15.8207Z" fill="#1B1E28"/>
<path d="M13.3404 14.2128C13.5509 14.1281 13.7253 14.0092 13.9581 13.9807C14.2154 13.9485 14.4216 14.0232 14.6598 14.104C14.7586 14.1373 14.7974 14.0012 14.7258 13.9478C14.3449 13.6635 13.5515 13.7096 13.2728 14.1246C13.245 14.1657 13.2918 14.2325 13.3404 14.2128Z" fill="#1B1E28"/>
<path d="M16.4112 14.1014C16.6321 14.0158 16.8063 13.9202 17.0536 13.9315C17.301 13.9431 17.5025 14.0453 17.7305 14.1259C17.8298 14.1612 17.8667 14.0235 17.7962 13.9697C17.4362 13.6947 16.6362 13.5851 16.3434 14.0133C16.3148 14.0545 16.3626 14.1202 16.4112 14.1014Z" fill="#1B1E28"/>
<path d="M18.5715 16.1471C18.6986 16.4599 18.4571 16.8533 18.0318 17.0262C17.6064 17.1993 17.1588 17.0859 17.0318 16.7732C16.9046 16.4611 17.1464 16.0676 17.5717 15.8944C17.9968 15.7219 18.4447 15.8348 18.5715 16.1471Z" fill="#EAAABA"/>
<path d="M13.7359 15.9633C13.5416 15.8762 13.3409 15.8497 13.1659 15.8757V17.0723C13.1853 17.0825 13.2049 17.0925 13.2254 17.1017C13.6529 17.2935 14.1142 17.1944 14.255 16.8798C14.3959 16.5658 14.1634 16.1556 13.7359 15.9633Z" fill="#EAAABA"/>
<path d="M14.9953 14.867C15.0691 15.6332 14.6489 16.3761 13.8751 16.5801C13.0027 16.81 12.1154 16.2108 11.9806 15.3295C11.8543 14.5009 12.4288 13.7249 13.2562 13.5982C14.1141 13.4675 14.8272 14.0558 14.9967 14.8783C15.0078 14.9316 15.0889 14.9089 15.0777 14.856C14.9012 13.9988 14.1384 13.365 13.2379 13.5072C12.3698 13.6445 11.7613 14.4719 11.8888 15.3415C12.0159 16.2095 12.8536 16.824 13.7183 16.6971C14.62 16.5649 15.1636 15.7409 15.0796 14.8667C15.0743 14.8136 14.9902 14.8133 14.9953 14.867Z" fill="#1B1E28"/>
<path d="M18.8591 15.1392C18.8145 15.9675 18.1932 16.6682 17.3301 16.6682C16.5012 16.6682 15.8008 15.9675 15.8008 15.1392C15.8008 14.3674 16.4053 13.7065 17.1666 13.6272C18.0898 13.5316 18.8109 14.2379 18.8591 15.1392C18.8619 15.193 18.9462 15.1934 18.9434 15.1392C18.896 14.2627 18.2449 13.5259 17.3301 13.5259C16.4546 13.5259 15.7124 14.2607 15.7166 15.1392C15.7207 15.9864 16.3969 16.7031 17.2444 16.7475C18.1922 16.7974 18.8943 16.0492 18.9434 15.1392C18.9463 15.0849 18.8621 15.0849 18.8591 15.1392Z" fill="#1B1E28"/>
<path d="M15.0068 15.0464C15.2382 15.0874 15.5157 15.0896 15.7485 15.0569C15.7811 15.0524 15.7811 14.9961 15.7485 14.9915C15.5157 14.9593 15.2387 14.961 15.0068 15.002C14.9845 15.0058 14.9845 15.0423 15.0068 15.0464Z" fill="#1B1E28"/>
<path d="M18.8334 15.0748C19.7241 15.1232 20.6273 15.0796 21.5194 15.0715C21.5891 15.0709 21.5894 14.9621 21.5194 14.9626C20.6272 14.9698 19.7234 14.9411 18.8334 15.0046C18.7885 15.0078 18.7882 15.0724 18.8334 15.0748Z" fill="#1B1E28"/>
<path d="M24.4234 15.8821C23.7575 14.1849 21.2069 15.3399 21.2069 15.3399L20.9998 17L22.2569 16.5201C22.302 16.6327 23.4739 16.6552 23.4739 16.6552L24.4234 15.8821Z" fill="#FAB9C9"/>
<path d="M22.197 15.4214C22.8962 15.3144 23.5714 15.9269 23.492 16.6414C23.4798 16.7538 23.3022 16.755 23.3142 16.6414C23.3795 16.0541 22.8403 15.5014 22.2441 15.5925C22.1323 15.6098 22.0842 15.4388 22.197 15.4214Z" fill="#E6A0B1"/>
<path d="M23.165 15.9429C22.872 16.0709 22.6528 16.3074 22.557 16.6139C22.5235 16.723 22.352 16.6764 22.3861 16.5668C22.4939 16.2195 22.7409 15.9356 23.0754 15.7895C23.1794 15.7443 23.2699 15.8972 23.165 15.9429Z" fill="#E6A0B1"/>
<path d="M14.1883 5.95269C13.1626 6.64604 12.9526 7.9645 13.4262 9.05922C13.4415 9.09477 13.4932 9.06395 13.4782 9.02889C13.0184 7.96662 13.2206 6.67911 14.2186 6.00452C14.2507 5.9829 14.2204 5.93069 14.1883 5.95269Z" fill="white"/>
<path d="M12.4036 13.3569C12.4895 13.5303 12.5682 13.7056 12.6741 13.8679C12.6952 13.9002 12.7474 13.8701 12.7261 13.8376C12.6199 13.6751 12.5414 13.4998 12.4556 13.3267C12.4384 13.292 12.3865 13.3225 12.4036 13.3569Z" fill="white"/>
<path d="M19.994 11.4384C19.994 11.5053 19.994 11.5719 19.994 11.6388C19.994 11.6774 20.0541 11.6774 20.0541 11.6388C20.0541 11.5719 20.0541 11.5053 20.0541 11.4384C20.0541 11.3998 19.994 11.3998 19.994 11.4384Z" fill="white"/>
<path d="M19.9167 12.3049C19.8986 12.3295 19.8948 12.3604 19.8767 12.385C19.8536 12.4162 19.9058 12.4461 19.9286 12.4154C19.947 12.3908 19.9508 12.3598 19.9687 12.3352C19.9917 12.304 19.9395 12.2739 19.9167 12.3049Z" fill="white"/>
<path d="M23.398 12.1799C23.3271 12.8549 23.3407 13.3953 23.5995 14.0311C23.614 14.0665 23.6721 14.0512 23.6575 14.0153C23.4031 13.3899 23.3885 12.8415 23.4581 12.1799C23.4624 12.1412 23.4019 12.1416 23.398 12.1799Z" fill="white"/>
<path d="M15.4046 21.9987C17.8575 22.1297 19.3366 22.0082 20.1326 21.1373C20.9284 20.2666 21.6774 18.7123 21.1153 14.5834C20.5538 10.4543 20.439 8.9839 20.439 8.9839L18.305 7.82666L13.6435 8.1123L13.1667 11.7183V11.7884C13.1667 11.7884 13.3141 11.4094 13.9252 11.4303C14.5362 11.4514 14.4728 11.1634 15.189 10.37C15.9055 9.5767 16.2565 10.5807 16.8225 11.0512C17.3884 11.5215 18.1876 10.8966 19.1143 10.8686C20.0415 10.8403 19.8587 11.9499 19.6834 12.2519C19.5076 12.554 19.3462 12.9822 19.9083 13.1859C20.4699 13.3895 20.6663 13.4806 20.7369 14.8569C20.8068 16.2333 20.4348 17.2095 19.7254 17.6728C19.0163 18.1363 17.5206 18.031 16.4812 17.2375C15.4419 16.4441 14.3146 17.2062 13.7708 17.4412C13.4835 17.565 13.2048 17.4044 13.1668 17.3811V18.6C13.1667 18.6001 12.9516 21.8677 15.4046 21.9987Z" fill="#1B1E28"/>
<path d="M12.8795 9.67534C12.9014 10.3063 12.5165 10.8185 12.2785 11.3767C12.1102 11.7711 12.0862 12.1987 12.0981 12.6205C12.0991 12.6592 12.1593 12.6594 12.1582 12.6205C12.14 11.9786 12.2867 11.4772 12.5669 10.9051C12.7689 10.4929 12.9558 10.1451 12.9395 9.67534C12.9383 9.63668 12.8781 9.63656 12.8795 9.67534Z" fill="white"/>
<path d="M19.9757 6.7791C20.6838 6.88737 21.4076 6.73783 22.1051 6.93585C23.4617 7.32056 23.1456 9.33486 22.7228 10.2814C22.707 10.3165 22.7589 10.3469 22.7745 10.3116C23.1968 9.36655 23.3671 8.13958 22.7067 7.25878C22.125 6.48314 20.7997 6.84461 19.9917 6.72118C19.9539 6.71534 19.9374 6.77326 19.9757 6.7791Z" fill="white"/>
<path d="M16.5467 9.95581C16.6074 11.7696 18.8812 9.75457 19.6613 10.6584C19.6866 10.6876 19.7291 10.6451 19.7038 10.6157C18.9071 9.69242 16.6638 11.6584 16.607 9.95569C16.6058 9.91716 16.5456 9.91703 16.5467 9.95581Z" fill="white"/>
<path d="M15.3148 22.0424C16.3214 22.049 17.3437 22.1711 18.3457 22.0244C19.4246 21.8664 20.1585 21.4469 20.7205 20.5096C20.7403 20.4763 20.6884 20.4463 20.6685 20.4794C20.0518 21.5073 19.1953 21.8864 18.0283 21.9986C17.1267 22.0853 16.2175 21.9881 15.3148 21.9822C15.2763 21.982 15.2763 22.0422 15.3148 22.0424Z" fill="white"/>
<path d="M15.1704 18.1415C15.4229 18.7047 16.4654 18.478 16.4664 17.8629C16.4664 17.7973 16.3763 17.7729 16.3431 17.8296C16.2256 18.0299 16.1487 18.2181 15.8978 18.2827C15.6352 18.3506 15.4434 18.2116 15.2416 18.07C15.1942 18.0368 15.1515 18.0992 15.1704 18.1415Z" fill="white"/>
<path d="M14.8544 26.4863C17.0396 29.0453 19.4232 28.7114 21.9364 26.4863L21.9367 36.9998H14.8545V26.4863H14.8544Z" fill="#E3EEF1"/>
<path d="M15.046 23.8306L10.08 25.535C12.3678 29.4608 13.5784 33.271 13.568 36.9508H15.7876C16.9248 32.9805 16.5359 28.5659 15.046 23.8306Z" fill="#186BE7"/>
<path d="M22.3803 23.8306L27.3465 25.535C25.0584 29.4608 23.8479 33.271 23.8582 36.9508H21.6386C20.5017 32.9805 20.8906 28.5659 22.3803 23.8306Z" fill="#186BE7"/>
</g>
</svg>
